<svg xmlns="http://www.w3.org/2000/svg" width="50" height="50" viewBox="0 0 50 50" fill="none">
  <mask id="mask0_6_898" style="mask-type:alpha" maskUnits="userSpaceOnUse" x="0" y="0" width="50" height="50">
    <rect width="50" height="50" fill="#D9D9D9"/>
  </mask>
  <g mask="url(#mask0_6_898)">
    <path d="M19.1672 32.5001L25.0005 28.1251L30.7297 32.5001L28.5422 25.4167L34.3755 20.8334H27.2922L25.0005 13.7501L22.7088 20.8334H15.6255L21.3547 25.4167L19.1672 32.5001ZM25.0005 45.8334C20.1741 44.6181 16.1897 41.849 13.0474 37.5261C9.90501 33.2032 8.33383 28.4029 8.33383 23.1251V10.4167L25.0005 4.16675L41.6672 10.4167V23.1251C41.6672 28.4029 40.096 33.2032 36.9536 37.5261C33.8113 41.849 29.8269 44.6181 25.0005 45.8334ZM25.0005 41.4584C28.6116 40.3126 31.5977 38.0209 33.9588 34.5834C36.32 31.1459 37.5005 27.3265 37.5005 23.1251V13.2813L25.0005 8.59383L12.5005 13.2813V23.1251C12.5005 27.3265 13.6811 31.1459 16.0422 34.5834C18.4033 38.0209 21.3894 40.3126 25.0005 41.4584Z" fill="#013366"/>
  </g>
</svg>