
<svg width="120" height="50" viewBox="0 0 120 50" fill="none" xmlns="http://www.w3.org/2000/svg">
<g clip-path="url(#clip0_6_887)">
<path d="M109.625 7.01297L108.355 7.03575" stroke="#013366" stroke-width="0.400001" stroke-miterlimit="1.5"/>
<path fill-rule="evenodd" clip-rule="evenodd" d="M109.624 1.94332V7.60332H109.621V7.60382H84.5135V15.766C84.5135 16.1471 84.8271 16.4565 85.2135 16.4565H93.6047L93.5993 17.7087H85.2135C84.1262 17.7087 83.2437 16.8385 83.2437 15.766V7.60382H83.2406V4.44093H83.2437V1.94332C83.2437 0.871249 84.1262 0.000579834 85.2135 0.000579834H107.654C108.742 0.000579834 109.624 0.871249 109.624 1.94332ZM84.5135 4.44093H108.354V1.94332C108.354 1.56221 108.041 1.25325 107.654 1.25325H85.2135C84.8271 1.25325 84.5135 1.56221 84.5135 1.94332V4.44093Z" fill="#013366"/>
<path fill-rule="evenodd" clip-rule="evenodd" d="M118.009 6.34518C119.097 6.34518 119.979 7.21585 119.979 8.28792V22.1106C119.979 23.1831 119.097 24.0533 118.009 24.0533H95.5684C94.4812 24.0533 93.5986 23.1831 93.5986 22.1106V13.9484H93.5956V10.7855H93.5986V8.28792C93.5986 7.21585 94.4812 6.34518 95.5684 6.34518H118.009ZM94.8685 13.9484V22.1106C94.8685 22.4917 95.182 22.8011 95.5684 22.8011H118.009C118.396 22.8011 118.709 22.4917 118.709 22.1106V13.9484H94.8685ZM118.709 10.7855H94.8685V8.28792C94.8685 7.90681 95.182 7.59785 95.5684 7.59785H118.009C118.396 7.59785 118.709 7.90681 118.709 8.28792V10.7855Z" fill="#013366"/>
<path d="M0.0215149 27.2509V7.85951H0.775496C0.897131 7.85951 0.99445 7.88592 1.09176 7.9387C1.16474 7.99149 1.21351 8.08507 1.21351 8.21944L1.33497 10.4364C1.9918 9.57265 2.74606 8.88644 3.59751 8.37778C4.44895 7.86912 5.42188 7.61481 6.49227 7.61481C8.29246 7.61481 9.67903 8.22422 10.6764 9.44308C11.6738 10.6619 12.1606 12.4903 12.1606 14.928C12.1606 15.9741 12.0146 16.9506 11.747 17.8576C11.4551 18.7645 11.0658 19.5515 10.5306 20.2185C9.99543 20.8855 9.33874 21.411 8.53595 21.7949C7.75749 22.1788 6.85713 22.3707 5.83539 22.3707C4.83799 22.3707 3.9867 22.1932 3.25689 21.8381C2.55141 21.483 1.91889 20.9551 1.40802 20.2545V27.2509H0.0215149ZM6.10325 8.72328C5.13017 8.72328 4.25421 8.97042 3.47575 9.46469C2.69729 9.95895 2.01619 10.6476 1.40802 11.5305V19.0452C1.96754 19.8706 2.57574 20.4512 3.25689 20.7871C3.91372 21.123 4.69206 21.291 5.56783 21.291C6.41928 21.291 7.17352 21.1375 7.80602 20.8303C8.46285 20.5232 8.99812 20.0889 9.41168 19.5275C9.84957 18.9661 10.1899 18.2942 10.4089 17.5121C10.6278 16.7299 10.7251 15.8685 10.7251 14.928C10.7251 12.7974 10.3359 11.2306 9.53314 10.2277C8.75468 9.22477 7.5872 8.72328 6.10325 8.72328Z" fill="#013366"/>
<path d="M15.0659 22.1836V7.85951H15.7955C15.9658 7.85951 16.0631 7.89312 16.1361 7.9603C16.2091 8.02749 16.2579 8.14265 16.2579 8.3058L16.3793 11.329C16.8415 10.1677 17.4741 9.25834 18.2525 8.60092C19.031 7.94351 19.9799 7.61481 21.1232 7.61481C21.5611 7.61481 21.9747 7.66037 22.3396 7.75155C22.7045 7.84272 23.0692 7.97471 23.3855 8.14746L23.2153 9.09759C23.1667 9.25115 23.0694 9.32794 22.8991 9.32794C22.8504 9.32794 22.7775 9.30874 22.6559 9.27035C22.5585 9.23197 22.4125 9.18878 22.2665 9.14079C22.0963 9.0928 21.9016 9.04961 21.6584 9.01122C21.4394 8.97283 21.1717 8.95363 20.8797 8.95363C19.7607 8.95363 18.8606 9.28954 18.1551 9.96135C17.4496 10.6332 16.8902 11.6025 16.4524 12.8694V22.1836H15.0659Z" fill="#013366"/>
<path d="M30.6573 7.62921C31.7033 7.62921 32.6521 7.80435 33.4549 8.15465C34.282 8.50495 34.9875 9.00162 35.547 9.64464C36.1065 10.2877 36.5442 11.0627 36.8361 11.9696C37.128 12.8766 37.2741 13.8915 37.2741 15.0144C37.2741 16.1373 37.128 17.1498 36.8361 18.0519C36.5442 18.9541 36.1065 19.7267 35.547 20.3697C34.9875 21.0127 34.282 21.507 33.4549 21.8525C32.6521 22.198 31.7033 22.3707 30.6573 22.3707C29.6355 22.3707 28.6867 22.198 27.8839 21.8525C27.0568 21.507 26.3514 21.0127 25.7919 20.3697C25.208 19.7267 24.7944 18.9541 24.4781 18.0519C24.1862 17.1498 24.0401 16.1373 24.0401 15.0144C24.0401 13.8915 24.1862 12.8766 24.4781 11.9696C24.7944 11.0627 25.208 10.2877 25.7919 9.64464C26.3514 9.00162 27.0568 8.50495 27.8839 8.15465C28.6867 7.80435 29.6355 7.62921 30.6573 7.62921ZM30.6573 21.291C31.533 21.291 32.287 21.1447 32.9438 20.852C33.5763 20.5592 34.136 20.1394 34.5495 19.5923C34.9874 19.0453 35.328 18.3854 35.5226 17.6128C35.7416 16.8402 35.8633 15.9741 35.8633 15.0144C35.8633 14.0642 35.7416 13.2005 35.5226 12.4231C35.328 11.6457 34.9874 10.9811 34.5495 10.4293C34.136 9.87741 33.5763 9.45271 32.9438 9.15519C32.287 8.85767 31.533 8.7089 30.6573 8.7089C29.8058 8.7089 29.0515 8.85767 28.3947 9.15519C27.7622 9.45271 27.2026 9.87741 26.7891 10.4293C26.3512 10.9811 26.0108 11.6457 25.7919 12.4231C25.5729 13.2005 25.4756 14.0642 25.4756 15.0144C25.4756 15.9741 25.5729 16.8402 25.7919 17.6128C26.0108 18.3854 26.3512 19.0453 26.7891 19.5923C27.2026 20.1394 27.7622 20.5592 28.3947 20.852C29.0515 21.1447 29.8058 21.291 30.6573 21.291Z" fill="#013366"/>
<path d="M40.1741 27.2509V7.85951H40.9284C41.0743 7.85951 41.1716 7.88592 41.2446 7.9387C41.3176 7.99149 41.3661 8.08507 41.3904 8.21944L41.5122 10.4364C42.1447 9.57265 42.8989 8.88644 43.7747 8.37778C44.6262 7.86912 45.5991 7.61481 46.6695 7.61481C48.4453 7.61481 49.8562 8.22422 50.8293 9.44309C51.8267 10.6619 52.3376 12.4903 52.3376 14.928C52.3376 15.9741 52.1918 16.9506 51.8998 17.8576C51.6322 18.7645 51.2187 19.5515 50.6835 20.2185C50.1483 20.8855 49.4913 21.411 48.7129 21.7949C47.9344 22.1788 47.0343 22.3707 46.0126 22.3707C45.0152 22.3707 44.1639 22.1932 43.4341 21.8381C42.7286 21.483 42.0961 20.9551 41.5609 20.2545V27.2509H40.1741ZM46.2802 8.72328C45.3071 8.72328 44.4314 8.97042 43.653 9.46469C42.8745 9.95895 42.169 10.6476 41.5609 11.5305V19.0452C42.1204 19.8706 42.7286 20.4512 43.4097 20.7871C44.0909 21.123 44.8692 21.291 45.7207 21.291C46.5965 21.291 47.3264 21.1375 47.9832 20.8303C48.6157 20.5232 49.1507 20.0889 49.5886 19.5275C50.0265 18.9661 50.3428 18.2942 50.5617 17.5121C50.7807 16.7299 50.9023 15.8685 50.9023 14.928C50.9023 12.7974 50.4888 11.2306 49.7103 10.2277C48.9076 9.22477 47.7641 8.72328 46.2802 8.72328Z" fill="#013366"/>
<path d="M61.7439 7.62921C62.571 7.62921 63.3253 7.76836 64.0308 8.04669C64.7119 8.32501 65.3201 8.73051 65.8309 9.26316C66.3418 9.79581 66.731 10.4508 67.0229 11.2282C67.3149 12.0056 67.461 12.8981 67.461 13.9059C67.461 14.117 67.4365 14.261 67.3636 14.3378C67.2906 14.4145 67.1933 14.4529 67.0716 14.4529H56.5866V14.7265C56.5866 15.8014 56.7083 16.7467 56.9759 17.5625C57.2192 18.3782 57.5842 19.062 58.0464 19.6139C58.5086 20.1657 59.068 20.5808 59.7492 20.8592C60.406 21.1375 61.1359 21.2766 61.963 21.2766C62.6928 21.2766 63.3251 21.1975 63.8603 21.0391C64.3955 20.8808 64.8335 20.7032 65.1984 20.5065C65.5633 20.3097 65.8552 20.1322 66.0742 19.9738C66.2931 19.8154 66.4392 19.7363 66.5365 19.7363C66.6582 19.7363 66.7554 19.7843 66.8284 19.8802L67.2174 20.3409C66.9742 20.6288 66.6579 20.8975 66.293 21.1471C65.9038 21.3966 65.4661 21.6101 65.0039 21.7877C64.5174 21.9652 64.0308 22.1068 63.4713 22.2124C62.9361 22.3179 62.4008 22.3707 61.8656 22.3707C60.8682 22.3707 59.9681 22.2004 59.141 21.8597C58.3139 21.519 57.6328 21.0223 57.0246 20.3697C56.4407 19.7171 56.0027 18.9181 55.6865 17.9728C55.3702 17.0274 55.2001 15.9453 55.2001 14.7265C55.2001 13.6995 55.3459 12.7518 55.6378 11.8832C55.9297 11.0147 56.3677 10.2661 56.9272 9.63747C57.4867 9.00884 58.1678 8.51697 58.9949 8.16186C59.7977 7.80676 60.7221 7.62921 61.7439 7.62921ZM61.7682 8.65132C61.0141 8.65132 60.3574 8.76651 59.7492 8.99685C59.1654 9.22719 58.6545 9.55826 58.2166 9.99014C57.803 10.422 57.438 10.9403 57.1704 11.5449C56.9028 12.1496 56.7326 12.8262 56.6353 13.5748H66.1959C66.1959 12.807 66.0986 12.1184 65.8796 11.5089C65.6607 10.8995 65.3688 10.3836 64.9796 9.96137C64.5903 9.53908 64.1279 9.21518 63.5684 8.98964C63.0332 8.7641 62.4251 8.65132 61.7682 8.65132Z" fill="#013366"/>
<path d="M70.3708 22.1836V7.85951H71.1005C71.2464 7.85951 71.3681 7.89312 71.4411 7.9603C71.5141 8.02749 71.5628 8.14265 71.5628 8.3058L71.6843 11.329C72.1465 10.1677 72.7791 9.25834 73.5575 8.60092C74.336 7.94351 75.2849 7.61481 76.4282 7.61481C76.8661 7.61481 77.2797 7.66037 77.6446 7.75155C78.0095 7.84272 78.3742 7.97471 78.6905 8.14746L78.496 9.09759C78.4716 9.25115 78.3744 9.32794 78.2041 9.32794C78.1554 9.32794 78.0582 9.30874 77.9609 9.27035C77.8635 9.23197 77.7175 9.18878 77.5715 9.14079C77.4012 9.0928 77.2066 9.04961 76.9634 9.01122C76.7444 8.97283 76.4769 8.95363 76.1607 8.95363C75.066 8.95363 74.1659 9.28954 73.4604 9.96135C72.7549 10.6332 72.1952 11.6025 71.7574 12.8694V22.1836H70.3708Z" fill="#013366"/>
<path d="M0.0043335 49.9595V30.3666H2.19382C2.43709 30.3666 2.6317 30.4194 2.80199 30.5249C2.97228 30.6305 3.0696 30.7937 3.11825 31.0144L3.41017 32.382C4.01834 31.7006 4.69946 31.1488 5.50225 30.7265C6.28071 30.3042 7.18082 30.093 8.25121 30.093C9.054 30.093 9.80794 30.261 10.4891 30.5969C11.1702 30.9328 11.7543 31.4199 12.2409 32.0581C12.7274 32.6963 13.0922 33.4833 13.3842 34.4191C13.6274 35.3548 13.7732 36.4273 13.7732 37.6366C13.7732 38.7402 13.6274 39.7624 13.3111 40.7029C13.0192 41.6434 12.5812 42.4592 12.0217 43.1502C11.4622 43.8412 10.8055 44.3811 10.0027 44.7698C9.19989 45.1585 8.32417 45.3528 7.32677 45.3528C6.49965 45.3528 5.76983 45.2257 5.18599 44.9713C4.60214 44.717 4.06689 44.3643 3.60467 43.9132V49.9595H0.0043335ZM7.01051 32.9003C6.25637 32.9003 5.62378 33.0562 5.08858 33.3682C4.55339 33.6801 4.06689 34.1191 3.60467 34.6854V41.3075C4.01823 41.8066 4.45624 42.1545 4.94278 42.3513C5.42932 42.548 5.93992 42.6464 6.49944 42.6464C7.03463 42.6464 7.52143 42.5456 7.98364 42.3441C8.42153 42.1425 8.78634 41.8354 9.10259 41.4227C9.39451 41.01 9.63788 40.4894 9.80817 39.8607C9.97845 39.2321 10.0514 38.4907 10.0514 37.6366C10.0514 36.7728 9.97818 36.041 9.83222 35.4412C9.71059 34.8413 9.49164 34.3543 9.22405 33.98C8.98078 33.6057 8.66479 33.3322 8.27556 33.1594C7.91065 32.9866 7.47272 32.9003 7.01051 32.9003Z" fill="#013366"/>
<path d="M27.7207 45.1369H26.091C25.7504 45.1369 25.4827 45.0865 25.288 44.9857C25.0934 44.885 24.9476 44.681 24.8503 44.3739L24.5341 43.323C24.1448 43.6589 23.7797 43.954 23.4148 44.2084C23.0499 44.4627 22.6608 44.6762 22.2715 44.849C21.8823 45.0217 21.4687 45.1513 21.0308 45.2376C20.5929 45.324 20.1065 45.3672 19.5713 45.3672C18.9388 45.3672 18.355 45.2832 17.8198 45.1153C17.2846 44.9473 16.8466 44.693 16.4573 44.3571C16.0681 44.0188 15.7762 43.6013 15.5573 43.0999C15.3383 42.5984 15.241 42.0178 15.241 41.3531C15.241 40.7941 15.3871 40.2423 15.679 39.6976C15.9709 39.1554 16.4574 38.6635 17.1629 38.2244C17.8441 37.7877 18.7685 37.423 19.9119 37.1351C21.0552 36.8448 22.4906 36.7008 24.1934 36.7008V35.8323C24.1934 34.8341 23.9745 34.0975 23.5609 33.6201C23.123 33.1402 22.5148 32.9003 21.712 32.9003C21.1282 32.9003 20.6417 32.9674 20.2525 33.1018C19.8633 33.2362 19.5226 33.3874 19.2307 33.5553C18.9631 33.7233 18.6956 33.8744 18.4523 34.0088C18.2091 34.1431 17.9413 34.2103 17.6493 34.2103C17.4061 34.2103 17.1871 34.1479 17.0168 34.0232C16.8465 33.8984 16.7007 33.7448 16.5791 33.5625L15.9222 32.4252C17.6494 30.8704 19.7417 30.093 22.1744 30.093C23.0502 30.093 23.8286 30.2346 24.5097 30.5177C25.1909 30.8009 25.7746 31.1944 26.2612 31.6982C26.7234 32.2021 27.0884 32.8043 27.3317 33.5049C27.5993 34.2055 27.7207 34.9733 27.7207 35.8083V45.1369ZM20.7146 42.9199C21.0795 42.9199 21.4201 42.8863 21.7364 42.8215C22.0283 42.7544 22.3202 42.656 22.6121 42.524C22.8797 42.392 23.1472 42.2289 23.4148 42.0346C23.6581 41.8402 23.9258 41.6123 24.1934 41.3484V38.8746C23.1474 38.8746 22.2717 38.9394 21.5662 39.0714C20.8608 39.2009 20.2767 39.3689 19.8632 39.5704C19.4253 39.7744 19.1334 40.0119 18.9387 40.2806C18.7685 40.5518 18.6712 40.8469 18.6712 41.166C18.6712 41.7946 18.8657 42.2433 19.2307 42.5144C19.6199 42.7855 20.1064 42.9199 20.7146 42.9199Z" fill="#013366"/>
<path d="M36.2732 49.1965C36.1759 49.4461 36.0301 49.6356 35.8598 49.7652C35.6895 49.8948 35.4218 49.9595 35.0812 49.9595H32.4053L35.203 44.0428L29.1456 30.3665H32.2835C32.5755 30.3665 32.8188 30.4337 32.9648 30.5681C33.1107 30.7025 33.2324 30.856 33.3054 31.0288L36.5167 38.6874C36.614 38.937 36.7113 39.1961 36.7843 39.4648C36.8572 39.7336 36.9301 40.0023 37.0031 40.271C37.0761 39.9927 37.149 39.724 37.2463 39.4648C37.3436 39.2057 37.4409 38.9418 37.5382 38.6731L40.5548 31.0288C40.6277 30.8368 40.7738 30.6785 40.9441 30.5537C41.1144 30.4289 41.3333 30.3665 41.5523 30.3665H44.447L36.2732 49.1965Z" fill="#013366"/>
<path d="M45.873 45.1369V30.3666H48.0868C48.549 30.3666 48.8409 30.5825 48.9869 31.0144L49.2301 32.1085C49.4977 31.8205 49.7652 31.5566 50.0572 31.3167C50.3491 31.0768 50.641 30.8704 50.9816 30.6977C51.2978 30.5249 51.6629 30.3882 52.0278 30.2874C52.3927 30.1866 52.8063 30.1362 53.2685 30.1362C54.1929 30.1362 54.9712 30.3882 55.5794 30.892C56.1876 31.3959 56.6499 32.0653 56.9419 32.9002C57.1851 32.4108 57.477 31.9909 57.8176 31.6406C58.1825 31.2903 58.5717 31.0048 58.9852 30.7841C59.3988 30.5633 59.8365 30.4001 60.3231 30.2946C60.7853 30.189 61.272 30.1362 61.7342 30.1362C62.5613 30.1362 63.2912 30.261 63.948 30.5105C64.5805 30.76 65.1155 31.1248 65.5534 31.6046C65.9913 32.0845 66.332 32.6699 66.5509 33.3609C66.7942 34.0519 66.9159 34.8437 66.9159 35.7363V45.1369H63.2912V35.7363C63.2912 34.7957 63.0965 34.0879 62.683 33.6129C62.2451 33.1378 61.6369 32.9002 60.8341 32.9002C60.4692 32.9002 60.1285 32.9626 59.8123 33.0874C59.496 33.2122 59.2042 33.3921 58.9852 33.6273C58.742 33.8624 58.5474 34.1575 58.4014 34.5126C58.2798 34.8677 58.2066 35.2756 58.2066 35.7363V45.1369H54.5819V35.7363C54.5819 34.7478 54.3873 34.0279 53.9738 33.5769C53.5845 33.1258 52.9764 32.9002 52.1979 32.9002C51.6871 32.9002 51.2006 33.0274 50.7384 33.2818C50.2762 33.5361 49.8626 33.884 49.4733 34.3255V45.1369H45.873Z" fill="#013366"/>
<path d="M75.5659 30.1362C76.5146 30.1362 77.3662 30.285 78.169 30.5825C78.9475 30.88 79.6529 31.3143 80.2124 31.8854C80.7962 32.4564 81.2339 33.157 81.5502 33.9872C81.8908 34.8173 82.0369 35.7651 82.0369 36.8304C82.0369 37.0991 82.0369 37.3222 82.0126 37.4998C81.9882 37.6773 81.9394 37.8165 81.8665 37.9173C81.8178 38.018 81.7206 38.09 81.6232 38.1332C81.5016 38.1764 81.3802 38.198 81.2099 38.198H71.9655C72.0628 39.7144 72.4764 40.8277 73.2062 41.5379C73.9117 42.2481 74.8606 42.6032 76.0526 42.6032C76.6364 42.6032 77.1473 42.536 77.5608 42.4016C77.9987 42.2673 78.3635 42.1185 78.6798 41.9553C78.996 41.7922 79.2635 41.6435 79.5068 41.5091C79.7501 41.3747 79.9691 41.3075 80.2124 41.3075C80.3584 41.3075 80.48 41.3363 80.5774 41.3939C80.699 41.4515 80.772 41.5331 80.8693 41.6386L81.9152 42.9343C81.5016 43.395 81.0639 43.7813 80.5774 44.0932C80.0665 44.4051 79.5556 44.6546 79.0204 44.8418C78.4609 45.0289 77.9255 45.1608 77.366 45.2376C76.8065 45.3144 76.2715 45.3528 75.7363 45.3528C74.6903 45.3528 73.717 45.1825 72.8412 44.8418C71.9412 44.501 71.1628 43.9972 70.506 43.3302C69.8248 42.6631 69.3139 41.8378 68.9246 40.8541C68.5597 39.8703 68.3652 38.7306 68.3652 37.435C68.3652 36.4273 68.5353 35.4795 68.8516 34.5918C69.1922 33.704 69.6789 32.9314 70.2871 32.274C70.8953 31.6166 71.6492 31.096 72.5493 30.7121C73.4494 30.3282 74.4468 30.1362 75.5659 30.1362ZM75.6389 32.6843C74.5929 32.6843 73.7657 32.977 73.1575 33.5625C72.5737 34.1479 72.1845 34.9781 72.0386 36.053H78.8015C78.8015 35.5923 78.7284 35.1581 78.6067 34.7502C78.4851 34.3423 78.2905 33.9848 78.0229 33.6776C77.7553 33.3705 77.439 33.1282 77.0254 32.9507C76.6362 32.7731 76.1741 32.6843 75.6389 32.6843Z" fill="#013366"/>
<path d="M83.4824 45.1369V30.3666H85.6715C86.1581 30.3666 86.45 30.5825 86.596 31.0144L86.8395 32.1805C87.1557 31.8734 87.4718 31.595 87.8123 31.3455C88.1529 31.096 88.4936 30.88 88.8829 30.6977C89.2478 30.5153 89.637 30.3762 90.0749 30.2802C90.5128 30.1842 90.9749 30.1362 91.4857 30.1362C92.2885 30.1362 93.0184 30.273 93.6509 30.5465C94.2834 30.8201 94.8186 31.2039 95.2322 31.6982C95.6701 32.1925 95.9864 32.7827 96.2053 33.4689C96.4243 34.1551 96.5216 34.9109 96.5216 35.7363V45.1369H92.9212V35.7363C92.9212 34.8341 92.7023 34.1359 92.2887 33.6417C91.8752 33.1474 91.2183 32.9002 90.3911 32.9002C89.7586 32.9002 89.1749 33.0394 88.6397 33.3178C88.0801 33.5961 87.5692 33.9752 87.0827 34.455V45.1369H83.4824Z" fill="#013366"/>
<path d="M104.258 45.3672C102.968 45.3672 101.971 45.0049 101.265 44.2803C100.56 43.5557 100.22 42.5552 100.22 41.2787V33.0298H98.7113C98.5166 33.0298 98.3461 32.9674 98.2002 32.8427C98.0542 32.7179 97.9813 32.5308 97.9813 32.2812V30.8704L100.39 30.4817L101.144 26.4509C101.193 26.2589 101.29 26.1101 101.412 26.0046C101.557 25.899 101.752 25.8462 101.947 25.8462H103.82V30.4961H107.761V33.0298H103.82V41.034C103.82 41.4947 103.942 41.8546 104.185 42.1137C104.404 42.3728 104.72 42.5024 105.109 42.5024C105.328 42.5024 105.523 42.476 105.669 42.4232C105.815 42.3704 105.96 42.3153 106.058 42.2577C106.179 42.2001 106.277 42.1449 106.374 42.0921C106.447 42.0393 106.545 42.0129 106.618 42.0129C106.739 42.0129 106.812 42.0393 106.885 42.0921C106.958 42.1449 107.031 42.2241 107.104 42.3297L108.199 44.0572C107.663 44.4891 107.055 44.8153 106.374 45.0361C105.693 45.2568 104.987 45.3672 104.258 45.3672Z" fill="#013366"/>
<path d="M119 33.2458C118.903 33.3993 118.806 33.5073 118.684 33.5697C118.587 33.6321 118.441 33.6633 118.271 33.6633C118.101 33.6633 117.93 33.6153 117.711 33.5193C117.517 33.4233 117.298 33.3153 117.03 33.1954C116.763 33.0754 116.471 32.9674 116.13 32.8715C115.789 32.7755 115.4 32.7275 114.938 32.7275C114.233 32.7275 113.673 32.8763 113.259 33.1738C112.846 33.4713 112.651 33.86 112.651 34.3399C112.651 34.6566 112.748 34.9229 112.967 35.1388C113.162 35.3548 113.454 35.5443 113.795 35.7075C114.135 35.8706 114.525 36.017 114.962 36.1466C115.4 36.2761 115.862 36.4177 116.3 36.5712C116.762 36.7248 117.225 36.9 117.663 37.0967C118.101 37.2934 118.49 37.543 118.83 37.8453C119.171 38.1476 119.463 38.5099 119.657 38.9322C119.876 39.3545 119.974 39.8631 119.974 40.4582C119.974 41.1684 119.852 41.8234 119.585 42.4232C119.317 43.0231 118.928 43.5413 118.417 43.978C117.93 44.4147 117.298 44.7554 116.544 45.0001C115.814 45.2448 114.962 45.3672 113.989 45.3672C113.478 45.3672 112.968 45.3216 112.481 45.2304C111.994 45.1393 111.508 45.0121 111.07 44.849C110.608 44.6858 110.194 44.4938 109.805 44.2731C109.416 44.0524 109.075 43.8124 108.783 43.5533L109.635 42.2001C109.732 42.0369 109.854 41.9122 110 41.8258C110.146 41.7394 110.34 41.6962 110.559 41.6962C110.778 41.6962 110.997 41.7586 111.192 41.8834C111.386 42.0081 111.63 42.1425 111.897 42.2865C112.14 42.4304 112.457 42.5648 112.822 42.6895C113.162 42.8143 113.624 42.8767 114.159 42.8767C114.597 42.8767 114.962 42.8263 115.279 42.7255C115.571 42.6248 115.838 42.4928 116.033 42.3297C116.227 42.1665 116.373 41.977 116.471 41.761C116.568 41.5451 116.592 41.3219 116.592 41.0916C116.592 40.7461 116.495 40.4629 116.276 40.2422C116.081 40.0215 115.814 39.8295 115.449 39.6664C115.108 39.5032 114.719 39.3569 114.281 39.2273C113.819 39.0978 113.381 38.9562 112.919 38.8026C112.457 38.6491 111.994 38.4691 111.557 38.2628C111.119 38.0564 110.73 37.7949 110.389 37.4782C110.024 37.1615 109.756 36.7728 109.538 36.3121C109.343 35.8515 109.221 35.2948 109.221 34.6422C109.221 34.0375 109.343 33.4617 109.586 32.9147C109.829 32.3676 110.194 31.8902 110.656 31.4823C111.143 31.0744 111.727 30.7481 112.432 30.5033C113.138 30.2586 113.965 30.1362 114.889 30.1362C115.911 30.1362 116.86 30.3042 117.687 30.6401C118.538 30.976 119.244 31.4175 119.803 31.9645L119 33.2458Z" fill="#013366"/>
</g>
<defs>
<clipPath id="clip0_6_887">
<rect width="120" height="50" fill="white"/>
</clipPath>
</defs>
</svg>
