<svg xmlns="http://www.w3.org/2000/svg" width="50" height="50" viewBox="0 0 50 50" fill="none">
  <mask id="mask0_6_922" style="mask-type:alpha" maskUnits="userSpaceOnUse" x="0" y="0" width="50" height="50">
    <rect width="50" height="50" fill="#D9D9D9"/>
  </mask>
  <g mask="url(#mask0_6_922)">
    <path d="M6.25062 41.6667C5.10479 41.6667 4.12388 41.2587 3.30791 40.4427C2.49194 39.6267 2.08395 38.6458 2.08395 37.5C2.08395 36.3542 2.49194 35.3733 3.30791 34.5573C4.12388 33.7413 5.10479 33.3333 6.25062 33.3333H6.79749C6.95374 33.3333 7.11867 33.368 7.29229 33.4375L16.7715 23.9583C16.702 23.7847 16.6673 23.6198 16.6673 23.4635V22.9167C16.6673 21.7708 17.0753 20.7899 17.8912 19.974C18.7072 19.158 19.6881 18.75 20.8339 18.75C21.9798 18.75 22.9607 19.158 23.7767 19.974C24.5926 20.7899 25.0006 21.7708 25.0006 22.9167C25.0006 22.9861 24.9659 23.3333 24.8964 23.9583L30.2089 29.2708C30.3826 29.2014 30.5475 29.1667 30.7037 29.1667H31.7975C31.9537 29.1667 32.1187 29.2014 32.2923 29.2708L39.6881 21.875C39.6187 21.7014 39.5839 21.5365 39.5839 21.3802V20.8333C39.5839 19.6875 39.9919 18.7066 40.8079 17.8906C41.6239 17.0746 42.6048 16.6667 43.7506 16.6667C44.8964 16.6667 45.8773 17.0746 46.6933 17.8906C47.5093 18.7066 47.9173 19.6875 47.9173 20.8333C47.9173 21.9792 47.5093 22.9601 46.6933 23.776C45.8773 24.592 44.8964 25 43.7506 25H43.2037C43.0475 25 42.8826 24.9653 42.7089 24.8958L35.3131 32.2917C35.3826 32.4653 35.4173 32.6302 35.4173 32.7865V33.3333C35.4173 34.4792 35.0093 35.4601 34.1933 36.276C33.3773 37.092 32.3964 37.5 31.2506 37.5C30.1048 37.5 29.1239 37.092 28.3079 36.276C27.4919 35.4601 27.0839 34.4792 27.0839 33.3333V32.7865C27.0839 32.6302 27.1187 32.4653 27.1881 32.2917L21.8756 26.9792C21.702 27.0486 21.5371 27.0833 21.3808 27.0833H20.8339C20.7645 27.0833 20.4173 27.0486 19.7923 26.9792L10.3131 36.4583C10.3826 36.6319 10.4173 36.7969 10.4173 36.9531V37.5C10.4173 38.6458 10.0093 39.6267 9.19333 40.4427C8.37736 41.2587 7.39645 41.6667 6.25062 41.6667ZM8.33395 20.7812L7.03187 17.9687L4.21937 16.6667L7.03187 15.3646L8.33395 12.5521L9.63603 15.3646L12.4485 16.6667L9.63603 17.9687L8.33395 20.7812ZM31.2506 18.75L29.2714 14.4792L25.0006 12.5L29.2714 10.5208L31.2506 6.25L33.2298 10.5208L37.5006 12.5L33.2298 14.4792L31.2506 18.75Z" fill="#013366"/>
  </g>
</svg>