<svg xmlns="http://www.w3.org/2000/svg" width="41" height="40" viewBox="0 0 41 40" fill="none">
  <path fill-rule="evenodd" clip-rule="evenodd" d="M4.5 0C2.29086 0 0.5 1.79086 0.5 4V36C0.5 38.2091 2.29086 40 4.5 40H36.5C38.7091 40 40.5 38.2091 40.5 36V4C40.5 1.79086 38.7091 0 36.5 0H4.5ZM20.5 7.014C16.9725 7.014 16.531 7.02816 15.1462 7.09191H15.145C13.7638 7.15566 12.8193 7.37525 11.9929 7.69518C11.127 8.02153 10.3426 8.53278 9.6944 9.1933C9.03343 9.8418 8.52178 10.6266 8.1951 11.493C7.87517 12.3194 7.6544 13.2639 7.59183 14.6475C7.52926 16.0311 7.51392 16.4726 7.51392 20.0001C7.51392 23.5264 7.52808 23.968 7.59183 25.3551C7.65558 26.7364 7.87517 27.6808 8.1951 28.5072C8.5213 29.3736 9.03256 30.1584 9.69322 30.8069C10.3423 31.4671 11.1275 31.978 11.9941 32.3039C12.8205 32.625 13.765 32.8457 15.1462 32.9083C16.531 32.9709 16.9725 32.9862 20.5 32.9862C24.0275 32.9862 24.4691 32.9721 25.855 32.9083C27.2363 32.8446 28.1807 32.625 29.0071 32.3039C29.8725 31.978 30.6575 31.468 31.3068 30.8069C31.9671 30.1578 32.4779 29.3727 32.8038 28.506C33.1249 27.6796 33.3456 26.7352 33.4082 25.3539C33.4708 23.9691 33.4861 23.5276 33.4861 20.0001C33.4861 16.4738 33.472 16.0323 33.4082 14.6451C33.3445 13.2639 33.1249 12.3194 32.8038 11.493C32.4779 10.6265 31.9679 9.84261 31.3068 9.19448C30.6575 8.53337 29.8725 8.02219 29.0071 7.69518C28.1807 7.37525 27.2363 7.15448 25.8527 7.09191C24.4691 7.02934 24.0275 7.014 20.5 7.014ZM20.5 9.35386C23.9673 9.35386 24.3782 9.36685 25.7476 9.42941C27.0143 9.48726 27.7014 9.69858 28.1595 9.87684C28.7234 10.0849 29.2337 10.4164 29.6529 10.8473C30.1074 11.3018 30.3872 11.735 30.6233 12.3407C30.8016 12.7987 31.0129 13.4858 31.0707 14.7525C31.1333 16.122 31.1463 16.5328 31.1463 20.0001C31.1463 23.4674 31.1333 23.8782 31.0707 25.2477C31.0129 26.5144 30.8016 27.2015 30.6233 27.6596C30.4155 28.2227 30.0838 28.7339 29.6529 29.153C29.1984 29.6075 28.7651 29.8873 28.1595 30.1234C27.7014 30.3016 27.0143 30.513 25.7476 30.5708C24.3782 30.6334 23.9685 30.6464 20.5 30.6464C17.0316 30.6464 16.6219 30.6334 15.2525 30.5708C13.9857 30.513 13.2986 30.3016 12.8406 30.1234C12.2775 29.9156 11.7663 29.5839 11.3472 29.153C10.9163 28.7339 10.5845 28.2227 10.3768 27.6596C10.1985 27.2015 9.98718 26.5144 9.92933 25.2477C9.86676 23.8782 9.85378 23.4674 9.85378 20.0001C9.85378 16.5328 9.86676 16.122 9.92933 14.7525C9.98718 13.4858 10.1985 12.7987 10.3768 12.3407C10.5848 11.7767 10.9163 11.2664 11.3472 10.8473C11.8017 10.3927 12.235 10.113 12.8406 9.87684C13.2986 9.69858 13.9857 9.48726 15.2525 9.42941C16.6219 9.36685 17.0327 9.35386 20.5 9.35386ZM21.7596 24.1506C20.7992 24.441 19.7677 24.389 18.8413 24.0034C18.2497 23.758 17.7198 23.3846 17.2898 22.9098C16.8598 22.4351 16.5404 21.871 16.3546 21.258C16.1687 20.645 16.1212 19.9985 16.2152 19.3649C16.3093 18.7314 16.5426 18.1265 16.8985 17.594C17.2544 17.0614 17.7239 16.6144 18.2733 16.2851C18.8226 15.9557 19.4382 15.7523 20.0756 15.6894C20.713 15.6266 21.3565 15.7058 21.9596 15.9215C22.5627 16.1371 23.1105 16.4838 23.5636 16.9366C24.2743 17.6449 24.717 18.5779 24.8162 19.5764C24.9154 20.5749 24.6648 21.5768 24.1073 22.4111C23.5499 23.2454 22.72 23.8602 21.7596 24.1506ZM17.9457 13.8333C17.1358 14.1688 16.4 14.6604 15.7802 15.2802C14.5284 16.532 13.8251 18.2298 13.8251 20.0001C13.8251 21.7704 14.5284 23.4682 15.7802 24.72C17.0319 25.9718 18.7297 26.675 20.5 26.675C22.2703 26.675 23.9681 25.9718 25.2199 24.72C25.8397 24.1001 26.3314 23.3643 26.6668 22.5545C27.0023 21.7446 27.1749 20.8767 27.1749 20.0001C27.1749 19.1236 27.0023 18.2556 26.6668 17.4457C26.3314 16.6359 25.8397 15.9001 25.2199 15.2802C24.6001 14.6604 23.8642 14.1688 23.0544 13.8333C22.2446 13.4979 21.3766 13.3252 20.5 13.3252C19.6235 13.3252 18.7555 13.4979 17.9457 13.8333ZM29.0169 13.8069C28.9319 14.0001 28.8089 14.1744 28.6553 14.3193C28.3566 14.6011 27.9598 14.7553 27.5492 14.7494C27.1386 14.7434 26.7465 14.5776 26.4561 14.2872C26.1657 13.9968 26 13.6047 25.994 13.1941C25.988 12.7835 26.1423 12.3867 26.4241 12.088C26.5689 11.9344 26.7432 11.8115 26.9364 11.7264C27.1297 11.6414 27.3381 11.596 27.5492 11.5929C27.7603 11.5898 27.9699 11.6291 28.1656 11.7085C28.3613 11.7879 28.539 11.9057 28.6883 12.055C28.8376 12.2043 28.9555 12.3821 29.0348 12.5777C29.1142 12.7734 29.1535 12.983 29.1504 13.1941C29.1474 13.4053 29.102 13.6136 29.0169 13.8069Z" fill="white"/>
</svg>