<svg xmlns="http://www.w3.org/2000/svg" width="50" height="50" viewBox="0 0 50 50" fill="none">
  <mask id="mask0_6_914" style="mask-type:alpha" maskUnits="userSpaceOnUse" x="0" y="0" width="50" height="50">
    <rect width="50" height="50" fill="#D9D9D9"/>
  </mask>
  <g mask="url(#mask0_6_914)">
    <path d="M13.5424 31.198V29.1147H8.33405V24.948H18.7507V20.7813H10.4174C9.8271 20.7813 9.33231 20.5817 8.933 20.1824C8.5337 19.7831 8.33405 19.2883 8.33405 18.698V10.3647C8.33405 9.77439 8.5337 9.2796 8.933 8.88029C9.33231 8.48098 9.8271 8.28133 10.4174 8.28133H13.5424V6.198H17.709V8.28133H22.9174V12.448H12.5007V16.6147H20.834C21.4243 16.6147 21.9191 16.8143 22.3184 17.2136C22.7177 17.6129 22.9174 18.1077 22.9174 18.698V27.0313C22.9174 27.6216 22.7177 28.1164 22.3184 28.5157C21.9191 28.915 21.4243 29.1147 20.834 29.1147H17.709V31.198H13.5424ZM29.0632 43.698L20.209 34.8438L23.1257 31.9272L29.0632 37.8647L40.834 26.0938L43.7507 29.0105L29.0632 43.698Z" fill="#013366"/>
  </g>
</svg>