<svg xmlns="http://www.w3.org/2000/svg" width="41" height="40" viewBox="0 0 41 40" fill="none">
  <path fill-rule="evenodd" clip-rule="evenodd" d="M4.5 0C2.29086 0 0.5 1.79086 0.5 4V36C0.5 38.2091 2.29086 40 4.5 40H36.5C38.7091 40 40.5 38.2091 40.5 36V4C40.5 1.79086 38.7091 0 36.5 0H4.5ZM29.9645 15.9317C30.9283 15.2813 31.7417 14.4947 32.4048 13.572H32.4047C31.5075 13.9424 30.5721 14.1818 29.5986 14.29C30.6578 13.6967 31.373 12.8537 31.7441 11.7609C30.7808 12.2964 29.7471 12.6664 28.6432 12.871C27.677 11.9094 26.4882 11.4286 25.0769 11.4286C23.7289 11.4286 22.5778 11.8749 21.6238 12.7674C20.6697 13.66 20.1926 14.7368 20.1926 15.998C20.1928 16.3592 20.2355 16.706 20.3207 17.0382C18.3228 16.945 16.4518 16.4775 14.7078 15.6356C12.9638 14.7938 11.4792 13.6695 10.254 12.2628C9.81368 12.9717 9.59351 13.7372 9.59351 14.5592C9.59351 15.3387 9.78897 16.0631 10.1799 16.7325C10.5708 17.4019 11.1 17.9448 11.7674 18.361C10.9836 18.3382 10.246 18.1476 9.55448 17.7894V17.846C9.55448 18.9435 9.92579 19.9118 10.6684 20.7507C11.4111 21.5895 12.3457 22.1145 13.4723 22.3257C13.0507 22.432 12.6221 22.4851 12.1865 22.4851C11.8839 22.4851 11.5773 22.4574 11.2666 22.4021C11.5809 23.3199 12.1557 24.0738 12.9909 24.6637C13.8261 25.2537 14.7716 25.5578 15.8273 25.5759C14.0469 26.8809 12.0246 27.5334 9.76036 27.5334C9.38856 27.5334 9.00018 27.5123 8.59523 27.4701C10.8768 28.8393 13.3727 29.5238 16.083 29.5238C17.8196 29.5238 19.4473 29.2668 20.966 28.7529C22.4848 28.2389 23.785 27.5498 24.8666 26.6855C25.9483 25.8212 26.8803 24.8292 27.6628 23.7094C28.4452 22.5896 29.0269 21.4174 29.4076 20.1927C29.7884 18.9681 29.9787 17.7449 29.9787 16.5232C29.9787 16.3033 29.974 16.1061 29.9645 15.9317Z" fill="white"/>
</svg>